HIERARCHY
ROOT Hips
{
  OFFSET 2.26061 22.2878 23.7974
  CHANNELS 6 Xposition Yposition Zposition Zrotation Xrotation Yrotation
  JOINT LeftUpLeg
  {
    OFFSET 8.64259 1.95398 -2.38835
    CHANNELS 3 Zrotation Xrotation Yrotation
    JOINT LeftLeg
    {
      OFFSET 43.7702 0 0
      CHANNELS 3 Zrotation Xrotation Yrotation
      JOINT LeftFoot
      {
        OFFSET 40.6238 0 0
        CHANNELS 3 Zrotation Xrotation Yrotation
        JOINT LeftToeBase
        {
          OFFSET 12.7242 0 0
          CHANNELS 3 Zrotation Xrotation Yrotation
          End Site
          {
            OFFSET 0 0 0
          }
        }
      }
    }
  }
  JOINT RightUpLeg
  {
    OFFSET -8.2249 1.95398 -2.59336
    CHANNELS 3 Zrotation Xrotation Yrotation
    JOINT RightLeg
    {
      OFFSET 43.5653 0 0
      CHANNELS 3 Zrotation Xrotation Yrotation
      JOINT RightFoot
      {
        OFFSET 40.6238 0 0
        CHANNELS 3 Zrotation Xrotation Yrotation
        JOINT RightToeBase
        {
          OFFSET 12.7242 0 0
          CHANNELS 3 Zrotation Xrotation Yrotation
          End Site
          {
            OFFSET 0 0 0
          }
        }
      }
    }
  }
  JOINT Spine
  {
    OFFSET 0.165834 0.87714 6.61349
    CHANNELS 3 Zrotation Xrotation Yrotation
    JOINT Spine1
    {
      OFFSET 7.38963 1.71661e-005 0
      CHANNELS 3 Zrotation Xrotation Yrotation
      JOINT Spine2
      {
        OFFSET 11.9445 1.14441e-005 0
        CHANNELS 3 Zrotation Xrotation Yrotation
        JOINT Spine3
        {
          OFFSET 14.7254 4.19617e-005 0
          CHANNELS 3 Zrotation Xrotation Yrotation
          JOINT Spine4
          {
            OFFSET 10.9679 0 0
            CHANNELS 3 Zrotation Xrotation Yrotation
            JOINT RightShoulder
            {
              OFFSET 2.46616 -1.6653 3.69651
              CHANNELS 3 Zrotation Xrotation Yrotation
              JOINT RightArm
              {
                OFFSET 13.0012 0 0
                CHANNELS 3 Zrotation Xrotation Yrotation
                JOINT RightForeArm
                {
                  OFFSET 28.7848 1.52588e-005 0
                  CHANNELS 3 Zrotation Xrotation Yrotation
                  JOINT RightHand
                  {
                    OFFSET 26.5688 1.52588e-005 0
                    CHANNELS 3 Zrotation Xrotation Yrotation
                    End Site
                    {
                      OFFSET 0 0 0
                    }
                  }
                }
              }
            }
            JOINT LeftShoulder
            {
              OFFSET 2.38034 -1.29275 -3.7523
              CHANNELS 3 Zrotation Xrotation Yrotation
              JOINT LeftArm
              {
                OFFSET 16.3182 6.10351e-005 0
                CHANNELS 3 Zrotation Xrotation Yrotation
                JOINT LeftForeArm
                {
                  OFFSET 27.0901 0 0
                  CHANNELS 3 Zrotation Xrotation Yrotation
                  JOINT LeftHand
                  {
                    OFFSET 24.5451 1.52588e-005 0
                    CHANNELS 3 Zrotation Xrotation Yrotation
                    End Site
                    {
                      OFFSET 0 0 0
                    }
                  }
                }
              }
            }
            JOINT Neck
            {
              OFFSET 5.0226 -0.0266342 0
              CHANNELS 3 Zrotation Xrotation Yrotation
              JOINT Head
              {
                OFFSET 6.69363 2.86102e-005 0
                CHANNELS 3 Zrotation Xrotation Yrotation
                End Site
                {
                  OFFSET 0 0 0
                }
              }
            }
          }
        }
      }
    }
  }
}
MOTION
Frames:	9
Frame Time:	0.0416667
-31.3914 11.7361 10.7514 1.72735 -1.95597 77.1461 -175.394 10.3562 88.5038 -24.6566 30.276 0.596732 55.1317 -2.33646 -0.251066 71.0571 35.994 6.68176 178.892 11.1572 90.3998 -31.2872 -17.7861 -7.55527 59.9233 -0.869753 -0.401668 54.0861 2.79465 9.56765 1.95569 6.47812 -92.3741 13.9625 2.71749 -5.12618 2.28384 2.48956 -5.24045 -20.2187 4.1313 -4.07478 -0.206072 4.1313 -4.07477 102.221 -29.4037 -81.9504 -61.8209 47.2333 78.6342 -16.7598 -9.014 -140.5 -41.657 1.68382 -6.42758 -169.729 -52.737 -16.0579 111.261 -27.2144 103.46 14.1689 18.9951 -153.685 45.7764 4.43608 5.73994 25.8627 -17.2831 80.4187 -25.1995 -32.8683 -73.9063 
-31.3929 11.7269 10.7679 1.76066 -1.89259 77.2618 -175.335 10.4488 88.6497 -24.8122 30.1302 0.622795 55.1256 -2.39968 -0.625794 71.6008 36.2151 6.19519 178.816 11.0535 90.4476 -30.9908 -17.8171 -7.38989 59.7294 -0.811208 -0.36751 53.5987 2.86004 10.4138 1.95903 6.47535 -92.3817 13.9634 2.72028 -5.14135 2.2847 2.49169 -5.2557 -20.2172 4.13851 -4.08841 -0.204568 4.13852 -4.08843 102.193 -29.6867 -82.009 -62.733 47.2341 78.9342 -17.3677 -8.99478 -140.129 -41.9437 1.8307 -6.72004 -169.587 -52.6979 -15.9517 111.024 -27.1667 103.267 14.149 18.8922 -153.634 45.102 4.25095 5.48794 26.1873 -17.4411 80.52 -26.2338 -32.6221 -73.9296 
-31.4171 11.743 10.7867 1.82563 -1.86345 77.2203 -175.375 10.3397 88.6342 -24.6781 30.1691 0.648508 54.8377 -2.59469 -0.576072 71.6521 36.4753 6.62574 178.723 11.0778 90.3896 -31.0972 -17.6892 -7.37666 59.4025 -0.659405 -0.265376 54.4962 3.07384 10.9132 1.95934 6.47692 -92.3758 13.9609 2.72386 -5.13087 2.28223 2.49572 -5.2454 -20.2198 4.13879 -4.07733 -0.207158 4.13881 -4.07735 101.952 -29.6681 -82.5058 -60.3123 46.3173 76.858 -18.1859 -9.1852 -139.568 -46.0846 1.6713 -5.84165 -169.27 -52.7229 -15.645 109.664 -27.542 102.57 14.3328 18.2912 -153.538 46.6361 4.16736 4.95331 26.2351 -16.9165 80.6093 -28.2319 -30.9562 -73.5489 
-31.4478 11.7662 10.7892 1.97505 -1.81234 77.2636 -175.396 10.3165 88.6874 -24.8459 29.9821 0.716001 54.8477 -2.60862 -0.877808 71.9931 36.7309 6.55667 178.838 10.9266 90.4566 -31.1186 -17.6607 -7.43081 59.5362 -0.739349 -0.31938 53.9897 2.97514 10.7716 1.95319 6.48236 -92.3905 13.9497 2.70469 -5.15712 2.27092 2.47545 -5.27081 -20.2301 4.12839 -4.10819 -0.217419 4.12839 -4.1082 101.949 -29.2612 -82.5174 -60.0707 46.0811 76.9201 -17.3937 -9.40693 -139.515 -42.6817 0.977626 -4.62034 -169.393 -52.6908 -15.7773 110.199 -27.2143 102.772 14.0968 18.8638 -153.589 46.2015 4.22278 5.17061 26.8468 -16.9647 80.5104 -29.8248 -30.4497 -73.2293 
-31.4419 11.7469 10.8012 1.92711 -1.77005 77.3123 -175.401 10.401 88.7566 -24.9085 29.9686 0.7463 54.9581 -2.55172 -1.27064 73.0875 37.3255 5.90063 178.874 10.9914 90.5173 -31.1214 -17.7303 -7.43201 59.5005 -0.722068 -0.308276 53.7155 2.83691 10.1596 1.95285 6.45504 -92.3907 14.0044 2.7025 -5.1601 2.32556 2.47309 -5.27362 -20.1753 4.12719 -4.11168 -0.162649 4.12718 -4.11167 102.503 -28.4865 -81.3594 -58.0927 46.3511 76.6189 -17.8488 -8.89094 -140.53 -46.0905 1.84899 -6.16985 -169.432 -52.6207 -15.8549 110.297 -27.0275 102.67 14.4185 18.3547 -153.538 46.4202 4.14502 4.95204 26.0167 -18.6821 80.0392 -30.1221 -31.048 -73.0234 
-31.4716 11.7474 10.8222 1.89689 -1.76365 77.2429 -175.493 10.4527 88.6861 -25.0634 30.0631 0.773988 55.4674 -2.10249 -0.889299 71.9242 37.8899 8.91856 178.867 11.1095 90.4883 -31.3176 -17.6698 -7.52891 59.3745 -0.64037 -0.250048 54.503 2.95569 10.1947 1.95396 6.44967 -92.384 14.0153 2.7077 -5.14771 2.33653 2.47884 -5.26151 -20.1648 4.1284 -4.09829 -0.152121 4.12843 -4.0983 103.002 -28.7941 -80.2712 -57.7769 46.92 76.1898 -18.2548 -8.46944 -141.102 -45.0595 1.64157 -5.70559 -169.338 -52.6932 -15.7251 109.695 -27.3626 102.497 14.1766 18.4256 -153.555 45.9934 3.97512 4.66847 25.4228 -19.5284 79.5787 -30.0143 -31.2683 -72.9461 
-31.4525 11.7651 10.825 1.96834 -1.83327 77.2596 -175.445 10.49 88.7118 -25.3619 30.0893 0.775919 55.2046 -2.33782 -0.783774 72.5892 37.4338 6.917 178.962 10.9385 90.4913 -31.1248 -17.7131 -7.54992 59.399 -0.695262 -0.288887 54.4067 3.04647 10.8367 1.95467 6.46387 -92.387 13.9869 2.70836 -5.15249 2.30813 2.47929 -5.2663 -20.1931 4.13048 -4.10264 -0.180413 4.13049 -4.10267 104.74 -24.4441 -76.3221 -41.0268 48.3708 65.049 -20.8673 -2.54376 -141.598 -44.846 1.05586 -4.06351 -169.654 -52.6324 -16.0518 110.948 -27.1147 103.265 14.2167 18.7647 -153.622 46.0329 4.01997 4.75927 25.1576 -20.02 80.092 -30.9349 -30.9508 -73.6949 
-31.4525 11.7641 10.8124 1.95373 -1.8047 77.3193 -175.475 10.4756 88.7924 -25.2523 30.052 0.843322 55.1288 -2.43768 -1.36906 72.2176 37.2051 7.10459 178.924 10.9114 90.4963 -31.0752 -17.8166 -7.50569 59.4381 -0.710386 -0.299027 54.4615 3.05689 10.8492 1.93073 6.46987 -92.3908 13.9735 2.65942 -5.15268 2.29464 2.4304 -5.26437 -20.2054 4.08386 -4.11758 -0.192735 4.08385 -4.11758 104.384 -25.6773 -77.1912 -44.6501 48.91 67.432 -20.1331 -4.1944 -141.314 -46.2998 1.699 -5.52771 -169.924 -52.6495 -16.2889 111.158 -27.152 103.469 13.8962 19.4222 -153.645 46.1829 3.90228 4.46793 24.7787 -20.4225 80.6532 -31.188 -30.8433 -74.7546 
-31.476 11.7721 10.8194 1.95384 -1.75916 77.2781 -175.533 10.5819 88.7692 -25.4238 30.4788 0.860876 55.1401 -2.4106 -1.0841 72.3724 37.745 7.89541 179.014 10.9506 90.4948 -31.1633 -17.7534 -7.59998 59.4372 -0.711487 -0.298887 54.9307 3.07425 10.5375 1.91596 6.49076 -92.3829 13.931 2.6351 -5.13165 2.25219 2.40702 -5.24228 -20.2478 4.05434 -4.10479 -0.235167 4.05435 -4.10479 104.545 -26.0909 -76.8725 -43.9416 49.5262 66.6175 -18.1644 -6.14096 -141.706 -45.1402 1.09879 -4.56695 -170.227 -52.61 -16.5901 112.321 -27.0372 104.182 14.1742 19.2408 -153.714 45.8633 3.86957 4.46115 24.194 -21.107 80.8114 -30.687 -31.2606 -75.5127 
